<mxfile host="app.diagrams.net" modified="2022-06-06T10:03:36.631Z" agent="5.0 (Windows NT 10.0; Win64; x64) AppleWebKit/537.36 (KHTML, like Gecko) Chrome/101.0.4951.67 Safari/537.36" etag="NCJ_TPpk9mGlWihbA6G5" version="19.0.0" type="github">
  <diagram id="MdPp8q1mj9meL5k1lfed" name="Page-1">
    <mxGraphModel dx="3079" dy="1238" grid="1" gridSize="10" guides="1" tooltips="1" connect="1" arrows="1" fold="1" page="1" pageScale="1" pageWidth="827" pageHeight="1169" math="0" shadow="0">
      <root>
        <mxCell id="0" />
        <mxCell id="1" parent="0" />
        <mxCell id="z4VVvYb6NLmeFiz8LYYD-22" value="" style="rounded=1;whiteSpace=wrap;html=1;fillColor=#f5f5f5;fontColor=#333333;strokeColor=#666666;" parent="1" vertex="1">
          <mxGeometry x="360" y="640" width="397" height="220" as="geometry" />
        </mxCell>
        <mxCell id="M7JDr11ptiNEwouJQt7x-41" style="edgeStyle=orthogonalEdgeStyle;rounded=1;orthogonalLoop=1;jettySize=auto;html=1;exitX=1;exitY=0.5;exitDx=0;exitDy=0;entryX=0;entryY=0.5;entryDx=0;entryDy=0;endArrow=doubleBlock;endFill=1;strokeWidth=2;fillColor=#d5e8d4;strokeColor=#82b366;" parent="1" source="z4VVvYb6NLmeFiz8LYYD-6" target="z4VVvYb6NLmeFiz8LYYD-10" edge="1">
          <mxGeometry relative="1" as="geometry" />
        </mxCell>
        <mxCell id="z4VVvYb6NLmeFiz8LYYD-6" value="Psychologist" style="rounded=1;whiteSpace=wrap;html=1;fillColor=#d5e8d4;strokeColor=#82b366;" parent="1" vertex="1">
          <mxGeometry x="-570" y="708" width="120" height="60" as="geometry" />
        </mxCell>
        <mxCell id="M7JDr11ptiNEwouJQt7x-16" style="edgeStyle=orthogonalEdgeStyle;rounded=0;orthogonalLoop=1;jettySize=auto;html=1;exitX=1;exitY=0.5;exitDx=0;exitDy=0;entryX=0;entryY=0.5;entryDx=0;entryDy=0;endArrow=doubleBlock;endFill=1;strokeWidth=2;fillColor=#fff2cc;strokeColor=#d6b656;" parent="1" source="z4VVvYb6NLmeFiz8LYYD-7" target="z4VVvYb6NLmeFiz8LYYD-11" edge="1">
          <mxGeometry relative="1" as="geometry" />
        </mxCell>
        <mxCell id="z4VVvYb6NLmeFiz8LYYD-7" value="Designer" style="rounded=1;whiteSpace=wrap;html=1;fillColor=#fff2cc;strokeColor=#d6b656;" parent="1" vertex="1">
          <mxGeometry x="60" y="707.5" width="120" height="60" as="geometry" />
        </mxCell>
        <mxCell id="z4VVvYb6NLmeFiz8LYYD-17" style="edgeStyle=orthogonalEdgeStyle;orthogonalLoop=1;jettySize=auto;html=1;exitX=0.75;exitY=0;exitDx=0;exitDy=0;entryX=0.25;entryY=0;entryDx=0;entryDy=0;rounded=1;fillColor=#fa6800;strokeColor=#C73500;" parent="1" source="z4VVvYb6NLmeFiz8LYYD-8" target="z4VVvYb6NLmeFiz8LYYD-12" edge="1">
          <mxGeometry relative="1" as="geometry">
            <Array as="points">
              <mxPoint x="460" y="683" />
              <mxPoint x="643" y="683" />
            </Array>
          </mxGeometry>
        </mxCell>
        <mxCell id="M7JDr11ptiNEwouJQt7x-23" style="edgeStyle=orthogonalEdgeStyle;rounded=1;orthogonalLoop=1;jettySize=auto;html=1;exitX=0.5;exitY=0;exitDx=0;exitDy=0;entryX=0.5;entryY=0;entryDx=0;entryDy=0;endArrow=classic;endFill=1;strokeWidth=1;startArrow=none;fillColor=#d5e8d4;strokeColor=#82b366;" parent="1" source="M7JDr11ptiNEwouJQt7x-38" target="z4VVvYb6NLmeFiz8LYYD-6" edge="1">
          <mxGeometry relative="1" as="geometry">
            <Array as="points">
              <mxPoint x="430" y="520" />
              <mxPoint x="-510" y="520" />
            </Array>
          </mxGeometry>
        </mxCell>
        <mxCell id="z4VVvYb6NLmeFiz8LYYD-8" value="User" style="rounded=1;whiteSpace=wrap;html=1;fillColor=#ffff88;strokeColor=#36393d;" parent="1" vertex="1">
          <mxGeometry x="370" y="707.5" width="120" height="60" as="geometry" />
        </mxCell>
        <mxCell id="z4VVvYb6NLmeFiz8LYYD-10" value="Model" style="rounded=0;whiteSpace=wrap;html=1;fillColor=#d5e8d4;strokeColor=#82b366;" parent="1" vertex="1">
          <mxGeometry x="-380" y="722" width="80" height="32" as="geometry" />
        </mxCell>
        <mxCell id="M7JDr11ptiNEwouJQt7x-24" style="edgeStyle=orthogonalEdgeStyle;rounded=1;orthogonalLoop=1;jettySize=auto;html=1;exitX=0.5;exitY=1;exitDx=0;exitDy=0;entryX=0.5;entryY=1;entryDx=0;entryDy=0;endArrow=classic;endFill=1;strokeWidth=1;fillColor=#d5e8d4;strokeColor=#82b366;" parent="1" source="z4VVvYb6NLmeFiz8LYYD-6" target="z4VVvYb6NLmeFiz8LYYD-8" edge="1">
          <mxGeometry relative="1" as="geometry">
            <Array as="points">
              <mxPoint x="-510" y="950" />
              <mxPoint x="430" y="950" />
            </Array>
          </mxGeometry>
        </mxCell>
        <mxCell id="z4VVvYb6NLmeFiz8LYYD-11" value="Design" style="rounded=0;whiteSpace=wrap;html=1;fillColor=#fff2cc;strokeColor=#d6b656;" parent="1" vertex="1">
          <mxGeometry x="250" y="721.25" width="70" height="32.5" as="geometry" />
        </mxCell>
        <mxCell id="z4VVvYb6NLmeFiz8LYYD-18" style="edgeStyle=orthogonalEdgeStyle;orthogonalLoop=1;jettySize=auto;html=1;exitX=0.25;exitY=1;exitDx=0;exitDy=0;entryX=0.75;entryY=1;entryDx=0;entryDy=0;rounded=1;fillColor=#fa6800;strokeColor=#C73500;" parent="1" source="z4VVvYb6NLmeFiz8LYYD-12" target="z4VVvYb6NLmeFiz8LYYD-8" edge="1">
          <mxGeometry relative="1" as="geometry">
            <Array as="points">
              <mxPoint x="643" y="790" />
              <mxPoint x="460" y="790" />
            </Array>
          </mxGeometry>
        </mxCell>
        <mxCell id="z4VVvYb6NLmeFiz8LYYD-12" value="System" style="rounded=1;whiteSpace=wrap;html=1;fillColor=#cdeb8b;strokeColor=#36393d;" parent="1" vertex="1">
          <mxGeometry x="613" y="707.5" width="120" height="60" as="geometry" />
        </mxCell>
        <mxCell id="M7JDr11ptiNEwouJQt7x-21" style="edgeStyle=orthogonalEdgeStyle;rounded=0;orthogonalLoop=1;jettySize=auto;html=1;exitX=1;exitY=0.5;exitDx=0;exitDy=0;entryX=0;entryY=0.5;entryDx=0;entryDy=0;endArrow=doubleBlock;endFill=1;strokeWidth=2;fillColor=#dae8fc;strokeColor=#6c8ebf;" parent="1" source="z4VVvYb6NLmeFiz8LYYD-19" target="z4VVvYb6NLmeFiz8LYYD-21" edge="1">
          <mxGeometry relative="1" as="geometry" />
        </mxCell>
        <mxCell id="z4VVvYb6NLmeFiz8LYYD-19" value="Evaluator" style="rounded=1;whiteSpace=wrap;html=1;fillColor=#dae8fc;strokeColor=#6c8ebf;" parent="1" vertex="1">
          <mxGeometry x="-250" y="708" width="120" height="60" as="geometry" />
        </mxCell>
        <mxCell id="M7JDr11ptiNEwouJQt7x-20" style="edgeStyle=orthogonalEdgeStyle;rounded=0;orthogonalLoop=1;jettySize=auto;html=1;exitX=0.5;exitY=1;exitDx=0;exitDy=0;entryX=0.25;entryY=1;entryDx=0;entryDy=0;endArrow=classic;endFill=1;strokeWidth=1;dashed=1;fillColor=#dae8fc;strokeColor=#6c8ebf;" parent="1" source="z4VVvYb6NLmeFiz8LYYD-21" target="z4VVvYb6NLmeFiz8LYYD-7" edge="1">
          <mxGeometry relative="1" as="geometry">
            <Array as="points">
              <mxPoint x="-30" y="820" />
              <mxPoint x="90" y="820" />
            </Array>
          </mxGeometry>
        </mxCell>
        <mxCell id="z4VVvYb6NLmeFiz8LYYD-21" value="Analysis" style="rounded=0;whiteSpace=wrap;html=1;fillColor=#dae8fc;strokeColor=#6c8ebf;" parent="1" vertex="1">
          <mxGeometry x="-70" y="721.5" width="80" height="32" as="geometry" />
        </mxCell>
        <mxCell id="z4VVvYb6NLmeFiz8LYYD-34" value="Interaction" style="text;html=1;strokeColor=none;fillColor=none;align=center;verticalAlign=middle;whiteSpace=wrap;rounded=0;" parent="1" vertex="1">
          <mxGeometry x="528.5" y="830" width="60" height="30" as="geometry" />
        </mxCell>
        <mxCell id="z4VVvYb6NLmeFiz8LYYD-77" style="edgeStyle=orthogonalEdgeStyle;curved=1;orthogonalLoop=1;jettySize=auto;html=1;startArrow=none;startFill=0;endArrow=doubleBlock;endFill=1;strokeWidth=2;exitX=0.5;exitY=1;exitDx=0;exitDy=0;fillColor=#d5e8d4;strokeColor=#82b366;" parent="1" source="z4VVvYb6NLmeFiz8LYYD-12" target="z4VVvYb6NLmeFiz8LYYD-75" edge="1">
          <mxGeometry relative="1" as="geometry" />
        </mxCell>
        <mxCell id="M7JDr11ptiNEwouJQt7x-31" value="" style="rounded=0;whiteSpace=wrap;html=1;strokeColor=none;" parent="1" vertex="1">
          <mxGeometry x="420" y="880" width="20" height="20" as="geometry" />
        </mxCell>
        <mxCell id="z4VVvYb6NLmeFiz8LYYD-75" value="Beliefs" style="rounded=0;whiteSpace=wrap;html=1;fillColor=#e1d5e7;strokeColor=#9673a6;" parent="1" vertex="1">
          <mxGeometry x="638" y="800" width="70" height="35" as="geometry" />
        </mxCell>
        <mxCell id="M7JDr11ptiNEwouJQt7x-28" style="edgeStyle=orthogonalEdgeStyle;rounded=1;orthogonalLoop=1;jettySize=auto;html=1;exitX=0.5;exitY=1;exitDx=0;exitDy=0;entryX=0.25;entryY=1;entryDx=0;entryDy=0;endArrow=classic;endFill=1;strokeWidth=1;fillColor=#ffe6cc;strokeColor=#d79b00;" parent="1" source="z4VVvYb6NLmeFiz8LYYD-7" target="z4VVvYb6NLmeFiz8LYYD-22" edge="1">
          <mxGeometry relative="1" as="geometry">
            <Array as="points">
              <mxPoint x="120" y="890" />
              <mxPoint x="459" y="890" />
            </Array>
          </mxGeometry>
        </mxCell>
        <mxCell id="M7JDr11ptiNEwouJQt7x-35" value="" style="rounded=0;whiteSpace=wrap;html=1;strokeColor=none;" parent="1" vertex="1">
          <mxGeometry x="420" y="910" width="20" height="20" as="geometry" />
        </mxCell>
        <mxCell id="M7JDr11ptiNEwouJQt7x-26" style="edgeStyle=orthogonalEdgeStyle;rounded=1;orthogonalLoop=1;jettySize=auto;html=1;exitX=0.5;exitY=1;exitDx=0;exitDy=0;entryX=0.5;entryY=1;entryDx=0;entryDy=0;endArrow=classic;endFill=1;strokeWidth=1;fillColor=#dae8fc;strokeColor=#6c8ebf;" parent="1" source="z4VVvYb6NLmeFiz8LYYD-22" target="z4VVvYb6NLmeFiz8LYYD-19" edge="1">
          <mxGeometry relative="1" as="geometry">
            <Array as="points">
              <mxPoint x="558" y="920" />
              <mxPoint x="-190" y="920" />
            </Array>
          </mxGeometry>
        </mxCell>
        <mxCell id="M7JDr11ptiNEwouJQt7x-39" value="" style="edgeStyle=orthogonalEdgeStyle;rounded=0;orthogonalLoop=1;jettySize=auto;html=1;exitX=0.5;exitY=0;exitDx=0;exitDy=0;endArrow=none;endFill=1;strokeWidth=1;fillColor=#d5e8d4;strokeColor=#82b366;" parent="1" source="z4VVvYb6NLmeFiz8LYYD-8" edge="1">
          <mxGeometry relative="1" as="geometry">
            <mxPoint x="430" y="707.5" as="sourcePoint" />
            <mxPoint x="430" y="580" as="targetPoint" />
            <Array as="points">
              <mxPoint x="430" y="590" />
              <mxPoint x="430" y="590" />
            </Array>
          </mxGeometry>
        </mxCell>
        <mxCell id="M7JDr11ptiNEwouJQt7x-37" value="" style="rounded=0;whiteSpace=wrap;html=1;strokeColor=none;fillColor=#f5f5f5;fontColor=#333333;" parent="1" vertex="1">
          <mxGeometry x="420" y="650" width="20" height="20" as="geometry" />
        </mxCell>
        <mxCell id="M7JDr11ptiNEwouJQt7x-22" style="edgeStyle=orthogonalEdgeStyle;orthogonalLoop=1;jettySize=auto;html=1;exitX=0.5;exitY=0;exitDx=0;exitDy=0;entryX=0.75;entryY=0;entryDx=0;entryDy=0;endArrow=classic;endFill=1;strokeWidth=1;rounded=1;dashed=1;fillColor=#fff2cc;strokeColor=#d6b656;" parent="1" source="z4VVvYb6NLmeFiz8LYYD-11" target="z4VVvYb6NLmeFiz8LYYD-12" edge="1">
          <mxGeometry relative="1" as="geometry">
            <Array as="points">
              <mxPoint x="280" y="660" />
              <mxPoint x="703" y="660" />
            </Array>
          </mxGeometry>
        </mxCell>
        <mxCell id="M7JDr11ptiNEwouJQt7x-38" value="" style="rounded=0;whiteSpace=wrap;html=1;strokeColor=none;" parent="1" vertex="1">
          <mxGeometry x="420" y="590" width="20" height="20" as="geometry" />
        </mxCell>
        <mxCell id="M7JDr11ptiNEwouJQt7x-27" style="edgeStyle=orthogonalEdgeStyle;rounded=1;orthogonalLoop=1;jettySize=auto;html=1;exitX=0.25;exitY=0;exitDx=0;exitDy=0;entryX=0.5;entryY=0;entryDx=0;entryDy=0;endArrow=classic;endFill=1;strokeWidth=1;fillColor=#ffe6cc;strokeColor=#d79b00;" parent="1" source="z4VVvYb6NLmeFiz8LYYD-22" target="z4VVvYb6NLmeFiz8LYYD-7" edge="1">
          <mxGeometry relative="1" as="geometry">
            <Array as="points">
              <mxPoint x="459" y="600" />
              <mxPoint x="120" y="600" />
            </Array>
          </mxGeometry>
        </mxCell>
        <mxCell id="M7JDr11ptiNEwouJQt7x-40" value="" style="rounded=0;whiteSpace=wrap;html=1;strokeColor=none;" parent="1" vertex="1">
          <mxGeometry x="420" y="550" width="20" height="20" as="geometry" />
        </mxCell>
        <mxCell id="M7JDr11ptiNEwouJQt7x-25" style="edgeStyle=orthogonalEdgeStyle;rounded=1;orthogonalLoop=1;jettySize=auto;html=1;exitX=0.5;exitY=0;exitDx=0;exitDy=0;entryX=0.5;entryY=0;entryDx=0;entryDy=0;endArrow=classic;endFill=1;strokeWidth=1;fillColor=#dae8fc;strokeColor=#6c8ebf;" parent="1" source="z4VVvYb6NLmeFiz8LYYD-19" target="z4VVvYb6NLmeFiz8LYYD-22" edge="1">
          <mxGeometry relative="1" as="geometry">
            <Array as="points">
              <mxPoint x="-190" y="560" />
              <mxPoint x="558" y="560" />
            </Array>
          </mxGeometry>
        </mxCell>
        <mxCell id="r5zrhkbvJIqq5NLGdq4o-1" value="" style="rounded=0;whiteSpace=wrap;html=1;strokeColor=none;" vertex="1" parent="1">
          <mxGeometry x="-240" y="610" width="20" height="20" as="geometry" />
        </mxCell>
        <mxCell id="r5zrhkbvJIqq5NLGdq4o-3" value="&lt;font color=&quot;#ff6666&quot;&gt;&lt;b&gt;IN:&lt;/b&gt; INFERENCE&lt;/font&gt;" style="text;html=1;strokeColor=none;fillColor=none;align=center;verticalAlign=middle;whiteSpace=wrap;rounded=0;fontColor=#000000;" vertex="1" parent="1">
          <mxGeometry x="513.5" y="678" width="96.5" height="30" as="geometry" />
        </mxCell>
        <mxCell id="r5zrhkbvJIqq5NLGdq4o-4" value="&lt;font color=&quot;#ffd966&quot;&gt;&lt;b&gt;BEFORE&lt;/b&gt;: OPTIMIZE&lt;/font&gt;" style="text;html=1;strokeColor=none;fillColor=none;align=center;verticalAlign=middle;whiteSpace=wrap;rounded=0;fontColor=#000000;" vertex="1" parent="1">
          <mxGeometry x="240" y="600" width="120" height="30" as="geometry" />
        </mxCell>
        <mxCell id="r5zrhkbvJIqq5NLGdq4o-5" value="&lt;font color=&quot;#7ea6e0&quot;&gt;&lt;b&gt;AFTER&lt;/b&gt;: ANALYSIS&lt;/font&gt;" style="text;html=1;strokeColor=none;fillColor=none;align=center;verticalAlign=middle;whiteSpace=wrap;rounded=0;fontColor=#000000;" vertex="1" parent="1">
          <mxGeometry x="110" y="555" width="120" height="30" as="geometry" />
        </mxCell>
        <mxCell id="r5zrhkbvJIqq5NLGdq4o-6" value="&lt;font color=&quot;#97d077&quot;&gt;&lt;b&gt;ABOUT&lt;/b&gt;: MODELLING&lt;/font&gt;" style="text;html=1;strokeColor=none;fillColor=none;align=center;verticalAlign=middle;whiteSpace=wrap;rounded=0;fontColor=#000000;" vertex="1" parent="1">
          <mxGeometry x="-100" y="520" width="140" height="30" as="geometry" />
        </mxCell>
        <mxCell id="M7JDr11ptiNEwouJQt7x-29" value="" style="rounded=0;whiteSpace=wrap;html=1;strokeColor=none;" parent="1" vertex="1">
          <mxGeometry x="-200" y="650" width="20" height="20" as="geometry" />
        </mxCell>
        <mxCell id="M7JDr11ptiNEwouJQt7x-19" style="edgeStyle=orthogonalEdgeStyle;orthogonalLoop=1;jettySize=auto;html=1;exitX=0.5;exitY=0;exitDx=0;exitDy=0;entryX=0.25;entryY=0;entryDx=0;entryDy=0;endArrow=classic;endFill=1;strokeWidth=1;dashed=1;rounded=1;fillColor=#d5e8d4;strokeColor=#82b366;" parent="1" source="z4VVvYb6NLmeFiz8LYYD-10" target="z4VVvYb6NLmeFiz8LYYD-7" edge="1">
          <mxGeometry relative="1" as="geometry">
            <Array as="points">
              <mxPoint x="-340" y="660" />
              <mxPoint x="90" y="660" />
            </Array>
          </mxGeometry>
        </mxCell>
      </root>
    </mxGraphModel>
  </diagram>
</mxfile>
